<svg width="30" height="30" viewBox="0 0 30 30" fill="none" xmlns="http://www.w3.org/2000/svg">
<path d="M15 27.5C8.09625 27.5 2.5 21.9037 2.5 15C2.5 8.09625 8.09625 2.5 15 2.5C21.9037 2.5 27.5 8.09625 27.5 15C27.5 21.9037 21.9037 27.5 15 27.5ZM10.625 17.5V20H13.75V22.5H16.25V20H17.5C18.3288 20 19.1237 19.6708 19.7097 19.0847C20.2958 18.4987 20.625 17.7038 20.625 16.875C20.625 16.0462 20.2958 15.2513 19.7097 14.6653C19.1237 14.0792 18.3288 13.75 17.5 13.75H12.5C12.3342 13.75 12.1753 13.6842 12.0581 13.5669C11.9408 13.4497 11.875 13.2908 11.875 13.125C11.875 12.9592 11.9408 12.8003 12.0581 12.6831C12.1753 12.5658 12.3342 12.5 12.5 12.5H19.375V10H16.25V7.5H13.75V10H12.5C11.6712 10 10.8763 10.3292 10.2903 10.9153C9.70424 11.5013 9.375 12.2962 9.375 13.125C9.375 13.9538 9.70424 14.7487 10.2903 15.3347C10.8763 15.9208 11.6712 16.25 12.5 16.25H17.5C17.6658 16.25 17.8247 16.3158 17.9419 16.4331C18.0592 16.5503 18.125 16.7092 18.125 16.875C18.125 17.0408 18.0592 17.1997 17.9419 17.3169C17.8247 17.4342 17.6658 17.5 17.5 17.5H10.625Z" fill="white"/>
</svg>
